<mxfile host="65bd71144e">
    <diagram id="FtccwwIwbRN8gL_Jw7Be" name="Page-1">
        <mxGraphModel dx="1079" dy="680" grid="1" gridSize="10" guides="1" tooltips="1" connect="1" arrows="1" fold="1" page="1" pageScale="1" pageWidth="827" pageHeight="1169" math="0" shadow="0">
            <root>
                <mxCell id="0"/>
                <mxCell id="1" parent="0"/>
                <mxCell id="27" value="" style="whiteSpace=wrap;html=1;fontSize=24;fontColor=#ffffff;strokeColor=#A50040;strokeWidth=4;fillColor=none;" parent="1" vertex="1">
                    <mxGeometry x="50" y="110" width="720" height="660" as="geometry"/>
                </mxCell>
                <mxCell id="33" value="" style="whiteSpace=wrap;html=1;fontSize=24;fontColor=#ffffff;strokeColor=#3333FF;strokeWidth=4;fillColor=none;" parent="1" vertex="1">
                    <mxGeometry x="90" y="150" width="650" height="155" as="geometry"/>
                </mxCell>
                <mxCell id="21" value="" style="ellipse;whiteSpace=wrap;html=1;fontSize=24;fillColor=none;fontColor=#ffffff;strokeColor=#FF8000;strokeWidth=4;" parent="1" vertex="1">
                    <mxGeometry x="70" y="330" width="570" height="425" as="geometry"/>
                </mxCell>
                <mxCell id="2" value="" style="whiteSpace=wrap;html=1;" parent="1" vertex="1">
                    <mxGeometry x="290" y="370" width="10" height="350" as="geometry"/>
                </mxCell>
                <mxCell id="3" value="" style="whiteSpace=wrap;html=1;" parent="1" vertex="1">
                    <mxGeometry x="410" y="370" width="10" height="360" as="geometry"/>
                </mxCell>
                <mxCell id="4" value="" style="whiteSpace=wrap;html=1;" parent="1" vertex="1">
                    <mxGeometry x="170" y="480" width="380" height="10" as="geometry"/>
                </mxCell>
                <mxCell id="5" value="" style="whiteSpace=wrap;html=1;" parent="1" vertex="1">
                    <mxGeometry x="170" y="600" width="380" height="10" as="geometry"/>
                </mxCell>
                <mxCell id="6" value="&lt;font style=&quot;font-size: 48px&quot;&gt;X&lt;/font&gt;" style="text;html=1;resizable=0;autosize=1;align=center;verticalAlign=middle;points=[];fillColor=none;strokeColor=none;rounded=0;" parent="1" vertex="1">
                    <mxGeometry x="460" y="420" width="50" height="30" as="geometry"/>
                </mxCell>
                <mxCell id="7" value="&lt;font style=&quot;font-size: 48px&quot;&gt;O&lt;/font&gt;" style="text;html=1;resizable=0;autosize=1;align=center;verticalAlign=middle;points=[];fillColor=none;strokeColor=none;rounded=0;" parent="1" vertex="1">
                    <mxGeometry x="320" y="420" width="50" height="30" as="geometry"/>
                </mxCell>
                <mxCell id="8" value="&lt;font style=&quot;font-size: 48px&quot;&gt;X&lt;/font&gt;" style="text;html=1;resizable=0;autosize=1;align=center;verticalAlign=middle;points=[];fillColor=none;strokeColor=none;rounded=0;" parent="1" vertex="1">
                    <mxGeometry x="320" y="540" width="50" height="30" as="geometry"/>
                </mxCell>
                <mxCell id="9" value="Player Turn: X&lt;br&gt;OR&lt;br&gt;Winner: X" style="text;html=1;resizable=0;autosize=1;align=center;verticalAlign=middle;points=[];fillColor=none;strokeColor=none;rounded=0;fontSize=24;" parent="1" vertex="1">
                    <mxGeometry x="320" y="195" width="170" height="90" as="geometry"/>
                </mxCell>
                <mxCell id="10" value="Game Title" style="text;html=1;resizable=0;autosize=1;align=center;verticalAlign=middle;points=[];fillColor=none;strokeColor=none;rounded=0;fontSize=24;" parent="1" vertex="1">
                    <mxGeometry x="115" y="232.5" width="130" height="30" as="geometry"/>
                </mxCell>
                <mxCell id="11" value="" style="ellipse;whiteSpace=wrap;html=1;fontSize=24;fillColor=none;fontColor=#ffffff;strokeColor=#2D7600;strokeWidth=4;" parent="1" vertex="1">
                    <mxGeometry x="160" y="370" width="140" height="130" as="geometry"/>
                </mxCell>
                <mxCell id="12" value="" style="ellipse;whiteSpace=wrap;html=1;fontSize=24;fillColor=none;fontColor=#ffffff;strokeColor=#2D7600;strokeWidth=4;" parent="1" vertex="1">
                    <mxGeometry x="280" y="370" width="140" height="130" as="geometry"/>
                </mxCell>
                <mxCell id="13" value="" style="ellipse;whiteSpace=wrap;html=1;fontSize=24;fillColor=none;fontColor=#ffffff;strokeColor=#2D7600;strokeWidth=4;" parent="1" vertex="1">
                    <mxGeometry x="420" y="360" width="140" height="130" as="geometry"/>
                </mxCell>
                <mxCell id="14" value="" style="ellipse;whiteSpace=wrap;html=1;fontSize=24;fillColor=none;fontColor=#ffffff;strokeColor=#2D7600;strokeWidth=4;" parent="1" vertex="1">
                    <mxGeometry x="415" y="490" width="140" height="130" as="geometry"/>
                </mxCell>
                <mxCell id="15" value="" style="ellipse;whiteSpace=wrap;html=1;fontSize=24;fillColor=none;fontColor=#ffffff;strokeColor=#2D7600;strokeWidth=4;" parent="1" vertex="1">
                    <mxGeometry x="280" y="485" width="140" height="130" as="geometry"/>
                </mxCell>
                <mxCell id="16" value="" style="ellipse;whiteSpace=wrap;html=1;fontSize=24;fillColor=none;fontColor=#ffffff;strokeColor=#2D7600;strokeWidth=4;" parent="1" vertex="1">
                    <mxGeometry x="150" y="485" width="140" height="130" as="geometry"/>
                </mxCell>
                <mxCell id="18" value="" style="ellipse;whiteSpace=wrap;html=1;fontSize=24;fillColor=none;fontColor=#ffffff;strokeColor=#2D7600;strokeWidth=4;" parent="1" vertex="1">
                    <mxGeometry x="160" y="600" width="140" height="130" as="geometry"/>
                </mxCell>
                <mxCell id="19" value="" style="ellipse;whiteSpace=wrap;html=1;fontSize=24;fillColor=none;fontColor=#ffffff;strokeColor=#2D7600;strokeWidth=4;" parent="1" vertex="1">
                    <mxGeometry x="290" y="610" width="140" height="130" as="geometry"/>
                </mxCell>
                <mxCell id="20" value="" style="ellipse;whiteSpace=wrap;html=1;fontSize=24;fillColor=none;fontColor=#ffffff;strokeColor=#2D7600;strokeWidth=4;" parent="1" vertex="1">
                    <mxGeometry x="420" y="615" width="140" height="130" as="geometry"/>
                </mxCell>
                <mxCell id="22" value="" style="ellipse;whiteSpace=wrap;html=1;fontSize=24;fillColor=none;fontColor=#ffffff;strokeColor=#3333FF;strokeWidth=4;" parent="1" vertex="1">
                    <mxGeometry x="310" y="180" width="190" height="120" as="geometry"/>
                </mxCell>
                <mxCell id="23" value="" style="ellipse;whiteSpace=wrap;html=1;fontSize=24;fillColor=none;fontColor=#ffffff;strokeColor=#3333FF;strokeWidth=4;" parent="1" vertex="1">
                    <mxGeometry x="90" y="220" width="180" height="60" as="geometry"/>
                </mxCell>
                <mxCell id="30" value="Component: Game" style="text;html=1;resizable=0;autosize=1;align=center;verticalAlign=middle;points=[];fillColor=#a20025;strokeColor=#6F0000;rounded=0;fontSize=24;fontColor=#ffffff;" parent="1" vertex="1">
                    <mxGeometry x="50" y="100" width="220" height="30" as="geometry"/>
                </mxCell>
                <mxCell id="31" value="Component: Board" style="text;html=1;resizable=0;autosize=1;align=center;verticalAlign=middle;points=[];fillColor=#FF8000;strokeColor=#6F0000;rounded=0;fontSize=24;fontColor=#ffffff;" parent="1" vertex="1">
                    <mxGeometry x="360" y="330" width="220" height="30" as="geometry"/>
                </mxCell>
                <mxCell id="32" value="Component:&lt;br&gt;&amp;nbsp;Square" style="text;html=1;resizable=0;autosize=1;align=center;verticalAlign=middle;points=[];fillColor=#33FF33;strokeColor=#000000;rounded=0;fontSize=24;fontColor=#000000;" parent="1" vertex="1">
                    <mxGeometry x="420" y="515" width="150" height="60" as="geometry"/>
                </mxCell>
                <mxCell id="34" value="Component: GameInfo" style="text;html=1;resizable=0;autosize=1;align=center;verticalAlign=middle;points=[];fillColor=#3333FF;strokeColor=#6F0000;rounded=0;fontSize=24;fontColor=#ffffff;" parent="1" vertex="1">
                    <mxGeometry x="100" y="150" width="260" height="30" as="geometry"/>
                </mxCell>
                <mxCell id="35" value="Play Again&lt;br&gt;&amp;nbsp;Button" style="text;html=1;resizable=0;autosize=1;align=center;verticalAlign=middle;points=[];fillColor=none;strokeColor=none;rounded=0;fontSize=24;" vertex="1" parent="1">
                    <mxGeometry x="595" y="170" width="130" height="60" as="geometry"/>
                </mxCell>
                <mxCell id="36" value="" style="ellipse;whiteSpace=wrap;html=1;fontSize=24;fillColor=none;fontColor=#ffffff;strokeColor=#3333FF;strokeWidth=4;" vertex="1" parent="1">
                    <mxGeometry x="580" y="160" width="160" height="72.5" as="geometry"/>
                </mxCell>
            </root>
        </mxGraphModel>
    </diagram>
</mxfile>